# xmcd
#
# Track frame offsets: 
#        150
#        41789
#        76187
#        116869
#        147450
#        182789
#
# Disc length: 2963 seconds
#
# Revision: 6
# Processed by: cddbd v1.5.2PL0 Copyright (c) Steve Scherf et al.
# Submitted via: ExactAudioCopy v1.1
#
DISCID=530b9106
DTITLE=Chick Corea and Hiromi - Duet 
DYEAR=2008
DGENRE=Jazz
TTITLE0=Very Early
TTITLE1=How Insensitive
TTITLE2=Deja Vu
TTITLE3=Fool on the Hill
TTITLE4=Humpty Dumpty
TTITLE5=Bolivar Blues
EXTD=YEAR: 2008
EXTT0=
EXTT1=
EXTT2=
EXTT3=
EXTT4=
EXTT5=
PLAYORDER=
